<mxfile host="65bd71144e">
    <diagram name="Page-1" id="LCV9U5V9eFEOXtK2EdHP">
        <mxGraphModel dx="1341" dy="719" grid="1" gridSize="10" guides="1" tooltips="1" connect="1" arrows="1" fold="1" page="1" pageScale="1" pageWidth="850" pageHeight="1100" math="0" shadow="0">
            <root>
                <mxCell id="0"/>
                <mxCell id="1" parent="0"/>
                <mxCell id="rcZ3qM63o1Ao9sAwU_yY-1" value="Sellable Products &amp;lt;Abstract&amp;gt;" style="swimlane;fontStyle=1;align=center;verticalAlign=top;childLayout=stackLayout;horizontal=1;startSize=26;horizontalStack=0;resizeParent=1;resizeParentMax=0;resizeLast=0;collapsible=1;marginBottom=0;whiteSpace=wrap;html=1;" parent="1" vertex="1">
                    <mxGeometry x="380" y="160" width="190" height="228" as="geometry"/>
                </mxCell>
                <mxCell id="rcZ3qM63o1Ao9sAwU_yY-2" value="+ id: int&lt;br&gt;+ name: string&lt;br&gt;+ desc: string&lt;br&gt;+ price: double&lt;br&gt;+ createdOn: String" style="text;strokeColor=none;fillColor=none;align=left;verticalAlign=top;spacingLeft=4;spacingRight=4;overflow=hidden;rotatable=0;points=[[0,0.5],[1,0.5]];portConstraint=eastwest;whiteSpace=wrap;html=1;" parent="rcZ3qM63o1Ao9sAwU_yY-1" vertex="1">
                    <mxGeometry y="26" width="190" height="84" as="geometry"/>
                </mxCell>
                <mxCell id="rcZ3qM63o1Ao9sAwU_yY-3" value="" style="line;strokeWidth=1;fillColor=none;align=left;verticalAlign=middle;spacingTop=-1;spacingLeft=3;spacingRight=3;rotatable=0;labelPosition=right;points=[];portConstraint=eastwest;strokeColor=inherit;" parent="rcZ3qM63o1Ao9sAwU_yY-1" vertex="1">
                    <mxGeometry y="110" width="190" height="8" as="geometry"/>
                </mxCell>
                <mxCell id="rcZ3qM63o1Ao9sAwU_yY-4" value="+ toString(): string&lt;br&gt;+ equal(obj): bool&lt;br&gt;+ hashCode(): int&lt;br&gt;+ compareTo(obj) : int&lt;span style=&quot;white-space: pre;&quot;&gt;&#9;&lt;/span&gt;" style="text;strokeColor=none;fillColor=none;align=left;verticalAlign=top;spacingLeft=4;spacingRight=4;overflow=hidden;rotatable=0;points=[[0,0.5],[1,0.5]];portConstraint=eastwest;whiteSpace=wrap;html=1;" parent="rcZ3qM63o1Ao9sAwU_yY-1" vertex="1">
                    <mxGeometry y="118" width="190" height="110" as="geometry"/>
                </mxCell>
                <mxCell id="rcZ3qM63o1Ao9sAwU_yY-5" value="&lt;p style=&quot;margin:0px;margin-top:4px;text-align:center;&quot;&gt;&lt;b&gt;Weapons&amp;nbsp;&lt;/b&gt;&lt;/p&gt;&lt;p style=&quot;margin:0px;margin-top:4px;text-align:center;&quot;&gt;&lt;b&gt;Extends SellableProducts&lt;/b&gt;&lt;/p&gt;&lt;hr size=&quot;1&quot;&gt;&lt;p style=&quot;margin:0px;margin-left:4px;&quot;&gt;+ dmg: int&lt;/p&gt;&lt;p style=&quot;margin:0px;margin-left:4px;&quot;&gt;+ durability: int&lt;/p&gt;&lt;p style=&quot;margin:0px;margin-left:4px;&quot;&gt;+ weight: int&lt;/p&gt;&lt;hr size=&quot;1&quot;&gt;&lt;p style=&quot;margin:0px;margin-left:4px;&quot;&gt;+ method(): Type&lt;/p&gt;" style="verticalAlign=top;align=left;overflow=fill;fontSize=12;fontFamily=Helvetica;html=1;whiteSpace=wrap;" parent="1" vertex="1">
                    <mxGeometry x="600" y="160" width="160" height="100" as="geometry"/>
                </mxCell>
                <mxCell id="rcZ3qM63o1Ao9sAwU_yY-6" value="&lt;p style=&quot;margin:0px;margin-top:4px;text-align:center;&quot;&gt;&lt;b&gt;Armor&amp;nbsp;&lt;/b&gt;&lt;/p&gt;&lt;p style=&quot;margin:0px;margin-top:4px;text-align:center;&quot;&gt;&lt;b&gt;Extends SellableProducts&lt;/b&gt;&lt;/p&gt;&lt;hr size=&quot;1&quot;&gt;&lt;p style=&quot;margin:0px;margin-left:4px;&quot;&gt;+ type: String&lt;/p&gt;&lt;p style=&quot;margin:0px;margin-left:4px;&quot;&gt;+ durability: int&lt;/p&gt;&lt;p style=&quot;margin:0px;margin-left:4px;&quot;&gt;+ defense: int&lt;/p&gt;&lt;hr size=&quot;1&quot;&gt;&lt;p style=&quot;margin:0px;margin-left:4px;&quot;&gt;+ method(): Type&lt;/p&gt;" style="verticalAlign=top;align=left;overflow=fill;fontSize=12;fontFamily=Helvetica;html=1;whiteSpace=wrap;" parent="1" vertex="1">
                    <mxGeometry x="600" y="280" width="160" height="100" as="geometry"/>
                </mxCell>
                <mxCell id="rcZ3qM63o1Ao9sAwU_yY-7" value="&lt;p style=&quot;margin:0px;margin-top:4px;text-align:center;&quot;&gt;&lt;b&gt;Ability&amp;nbsp;&lt;/b&gt;&lt;/p&gt;&lt;p style=&quot;margin:0px;margin-top:4px;text-align:center;&quot;&gt;&lt;b&gt;Extends SellableProducts&lt;/b&gt;&lt;/p&gt;&lt;hr size=&quot;1&quot;&gt;&lt;p style=&quot;margin:0px;margin-left:4px;&quot;&gt;+ type: String&amp;nbsp;&lt;/p&gt;&lt;p style=&quot;margin:0px;margin-left:4px;&quot;&gt;+ manaCost: int&lt;/p&gt;&lt;p style=&quot;margin:0px;margin-left:4px;&quot;&gt;+ cooldown: int&lt;/p&gt;&lt;p style=&quot;margin:0px;margin-left:4px;&quot;&gt;+ range: int&lt;/p&gt;&lt;p style=&quot;margin:0px;margin-left:4px;&quot;&gt;+ duration: int&lt;/p&gt;&lt;hr size=&quot;1&quot;&gt;&lt;p style=&quot;margin:0px;margin-left:4px;&quot;&gt;+ method(): Type&lt;/p&gt;" style="verticalAlign=top;align=left;overflow=fill;fontSize=12;fontFamily=Helvetica;html=1;whiteSpace=wrap;" parent="1" vertex="1">
                    <mxGeometry x="780" y="160" width="170" height="130" as="geometry"/>
                </mxCell>
                <mxCell id="pb89iHlvT5X2Kf4BgKaV-1" value="Products" style="swimlane;fontStyle=1;align=center;verticalAlign=top;childLayout=stackLayout;horizontal=1;startSize=26;horizontalStack=0;resizeParent=1;resizeParentMax=0;resizeLast=0;collapsible=1;marginBottom=0;whiteSpace=wrap;html=1;" parent="1" vertex="1">
                    <mxGeometry x="380" y="440" width="190" height="190" as="geometry"/>
                </mxCell>
                <mxCell id="pb89iHlvT5X2Kf4BgKaV-2" value="+ inv: ArrayList&lt;br&gt;+ idCounter: int" style="text;strokeColor=none;fillColor=none;align=left;verticalAlign=top;spacingLeft=4;spacingRight=4;overflow=hidden;rotatable=0;points=[[0,0.5],[1,0.5]];portConstraint=eastwest;whiteSpace=wrap;html=1;" parent="pb89iHlvT5X2Kf4BgKaV-1" vertex="1">
                    <mxGeometry y="26" width="190" height="44" as="geometry"/>
                </mxCell>
                <mxCell id="pb89iHlvT5X2Kf4BgKaV-3" value="" style="line;strokeWidth=1;fillColor=none;align=left;verticalAlign=middle;spacingTop=-1;spacingLeft=3;spacingRight=3;rotatable=0;labelPosition=right;points=[];portConstraint=eastwest;strokeColor=inherit;" parent="pb89iHlvT5X2Kf4BgKaV-1" vertex="1">
                    <mxGeometry y="70" width="190" height="8" as="geometry"/>
                </mxCell>
                <mxCell id="pb89iHlvT5X2Kf4BgKaV-4" value="+ generateId() : int&lt;br&gt;+ addProduct(): void&lt;br&gt;+ removeProduct(): void&lt;br&gt;+ updateProduct(): void&lt;br&gt;+ getProduct(): int&lt;br&gt;+ getProducts(): ArrList&lt;br&gt;+ getProducts(String) : ArrList" style="text;strokeColor=none;fillColor=none;align=left;verticalAlign=top;spacingLeft=4;spacingRight=4;overflow=hidden;rotatable=0;points=[[0,0.5],[1,0.5]];portConstraint=eastwest;whiteSpace=wrap;html=1;" parent="pb89iHlvT5X2Kf4BgKaV-1" vertex="1">
                    <mxGeometry y="78" width="190" height="112" as="geometry"/>
                </mxCell>
                <mxCell id="pb89iHlvT5X2Kf4BgKaV-5" value="Cart" style="swimlane;fontStyle=1;align=center;verticalAlign=top;childLayout=stackLayout;horizontal=1;startSize=26;horizontalStack=0;resizeParent=1;resizeParentMax=0;resizeLast=0;collapsible=1;marginBottom=0;whiteSpace=wrap;html=1;" parent="1" vertex="1">
                    <mxGeometry x="380" y="680" width="190" height="150" as="geometry"/>
                </mxCell>
                <mxCell id="pb89iHlvT5X2Kf4BgKaV-6" value="+ userCart: ArrList&lt;br&gt;" style="text;strokeColor=none;fillColor=none;align=left;verticalAlign=top;spacingLeft=4;spacingRight=4;overflow=hidden;rotatable=0;points=[[0,0.5],[1,0.5]];portConstraint=eastwest;whiteSpace=wrap;html=1;" parent="pb89iHlvT5X2Kf4BgKaV-5" vertex="1">
                    <mxGeometry y="26" width="190" height="26" as="geometry"/>
                </mxCell>
                <mxCell id="pb89iHlvT5X2Kf4BgKaV-7" value="" style="line;strokeWidth=1;fillColor=none;align=left;verticalAlign=middle;spacingTop=-1;spacingLeft=3;spacingRight=3;rotatable=0;labelPosition=right;points=[];portConstraint=eastwest;strokeColor=inherit;" parent="pb89iHlvT5X2Kf4BgKaV-5" vertex="1">
                    <mxGeometry y="52" width="190" height="8" as="geometry"/>
                </mxCell>
                <mxCell id="pb89iHlvT5X2Kf4BgKaV-8" value="+ addProduct(): void&lt;br&gt;+ removeProduct(): void&lt;br&gt;+ getProducts(): ArrList&lt;br&gt;+ getProducts(String) : ArrList" style="text;strokeColor=none;fillColor=none;align=left;verticalAlign=top;spacingLeft=4;spacingRight=4;overflow=hidden;rotatable=0;points=[[0,0.5],[1,0.5]];portConstraint=eastwest;whiteSpace=wrap;html=1;" parent="pb89iHlvT5X2Kf4BgKaV-5" vertex="1">
                    <mxGeometry y="60" width="190" height="90" as="geometry"/>
                </mxCell>
                <mxCell id="pb89iHlvT5X2Kf4BgKaV-9" value="Store" style="swimlane;fontStyle=1;align=center;verticalAlign=top;childLayout=stackLayout;horizontal=1;startSize=26;horizontalStack=0;resizeParent=1;resizeParentMax=0;resizeLast=0;collapsible=1;marginBottom=0;whiteSpace=wrap;html=1;" parent="1" vertex="1">
                    <mxGeometry x="600" y="440" width="160" height="280" as="geometry"/>
                </mxCell>
                <mxCell id="pb89iHlvT5X2Kf4BgKaV-10" value="+ instance: Store&lt;br&gt;+ products: Prodcuts&lt;br&gt;+ cart: Cart" style="text;strokeColor=none;fillColor=none;align=left;verticalAlign=top;spacingLeft=4;spacingRight=4;overflow=hidden;rotatable=0;points=[[0,0.5],[1,0.5]];portConstraint=eastwest;whiteSpace=wrap;html=1;" parent="pb89iHlvT5X2Kf4BgKaV-9" vertex="1">
                    <mxGeometry y="26" width="160" height="54" as="geometry"/>
                </mxCell>
                <mxCell id="pb89iHlvT5X2Kf4BgKaV-11" value="" style="line;strokeWidth=1;fillColor=none;align=left;verticalAlign=middle;spacingTop=-1;spacingLeft=3;spacingRight=3;rotatable=0;labelPosition=right;points=[];portConstraint=eastwest;strokeColor=inherit;" parent="pb89iHlvT5X2Kf4BgKaV-9" vertex="1">
                    <mxGeometry y="80" width="160" height="8" as="geometry"/>
                </mxCell>
                <mxCell id="pb89iHlvT5X2Kf4BgKaV-12" value="+ getProducts(): ArrayList&lt;br&gt;+ getProduct(): obj&lt;br&gt;+ addProduct(): void&lt;br&gt;+ removeProduct(): void&lt;br&gt;+ updateProduct(): void&lt;br&gt;+ getProductId: int&lt;br&gt;+ addToCart(): void&lt;br&gt;+ remFromCart(): void&lt;br&gt;+ getCart(): ArrList&lt;br&gt;+ getProducts(String) : ArrList&lt;br&gt;+ getCart(String) : ArrList" style="text;strokeColor=none;fillColor=none;align=left;verticalAlign=top;spacingLeft=4;spacingRight=4;overflow=hidden;rotatable=0;points=[[0,0.5],[1,0.5]];portConstraint=eastwest;whiteSpace=wrap;html=1;" parent="pb89iHlvT5X2Kf4BgKaV-9" vertex="1">
                    <mxGeometry y="88" width="160" height="192" as="geometry"/>
                </mxCell>
                <mxCell id="VkWeKrrsURE9E7Zvbcsh-1" value="Utils" style="swimlane;fontStyle=1;align=center;verticalAlign=top;childLayout=stackLayout;horizontal=1;startSize=26;horizontalStack=0;resizeParent=1;resizeParentMax=0;resizeLast=0;collapsible=1;marginBottom=0;whiteSpace=wrap;html=1;" parent="1" vertex="1">
                    <mxGeometry x="780" y="480" width="230" height="230" as="geometry"/>
                </mxCell>
                <mxCell id="VkWeKrrsURE9E7Zvbcsh-2" value="&lt;br&gt;" style="text;strokeColor=none;fillColor=none;align=left;verticalAlign=top;spacingLeft=4;spacingRight=4;overflow=hidden;rotatable=0;points=[[0,0.5],[1,0.5]];portConstraint=eastwest;whiteSpace=wrap;html=1;" parent="VkWeKrrsURE9E7Zvbcsh-1" vertex="1">
                    <mxGeometry y="26" width="230" height="26" as="geometry"/>
                </mxCell>
                <mxCell id="VkWeKrrsURE9E7Zvbcsh-3" value="" style="line;strokeWidth=1;fillColor=none;align=left;verticalAlign=middle;spacingTop=-1;spacingLeft=3;spacingRight=3;rotatable=0;labelPosition=right;points=[];portConstraint=eastwest;strokeColor=inherit;" parent="VkWeKrrsURE9E7Zvbcsh-1" vertex="1">
                    <mxGeometry y="52" width="230" height="8" as="geometry"/>
                </mxCell>
                <mxCell id="VkWeKrrsURE9E7Zvbcsh-4" value="+ padRight(String, int) : String&lt;br&gt;+ clearConsole() : void&lt;br&gt;+ repeatChar(char, int) : char[]&lt;br&gt;+ saveToFile( ...SellableProduct) : String&lt;br&gt;+ readFromFile() : ArrayList&amp;lt;SP&amp;gt;" style="text;strokeColor=none;fillColor=none;align=left;verticalAlign=top;spacingLeft=4;spacingRight=4;overflow=hidden;rotatable=0;points=[[0,0.5],[1,0.5]];portConstraint=eastwest;whiteSpace=wrap;html=1;" parent="VkWeKrrsURE9E7Zvbcsh-1" vertex="1">
                    <mxGeometry y="60" width="230" height="170" as="geometry"/>
                </mxCell>
                <mxCell id="2" value="&lt;p style=&quot;margin:0px;margin-top:4px;text-align:center;&quot;&gt;&lt;b&gt;Server&lt;/b&gt;&lt;/p&gt;&lt;p style=&quot;margin:0px;margin-left:4px;&quot;&gt;+ serverSocket: ServerSocket&lt;/p&gt;&lt;hr size=&quot;1&quot;&gt;&lt;p style=&quot;margin:0px;margin-left:4px;&quot;&gt;+ start(int port): void&lt;br&gt;+ stop(): void&lt;br&gt;&lt;/p&gt;" style="verticalAlign=top;align=left;overflow=fill;fontSize=12;fontFamily=Helvetica;html=1;" vertex="1" parent="1">
                    <mxGeometry x="780" y="298" width="170" height="90" as="geometry"/>
                </mxCell>
                <mxCell id="3" value="&lt;p style=&quot;margin:0px;margin-top:4px;text-align:center;&quot;&gt;&lt;b&gt;ParserService&lt;/b&gt;&lt;/p&gt;&lt;p style=&quot;margin:0px;margin-left:4px;&quot;&gt;+ store: Store&lt;/p&gt;&lt;hr size=&quot;1&quot;&gt;&lt;p style=&quot;margin:0px;margin-left:4px;&quot;&gt;+ processMessage(String): void&lt;br&gt;&lt;/p&gt;" style="verticalAlign=top;align=left;overflow=fill;fontSize=12;fontFamily=Helvetica;html=1;" vertex="1" parent="1">
                    <mxGeometry x="780" y="730" width="230" height="90" as="geometry"/>
                </mxCell>
                <mxCell id="5" value="&lt;p style=&quot;margin:0px;margin-top:4px;text-align:center;&quot;&gt;&lt;b&gt;ClientHandler&lt;/b&gt;&lt;/p&gt;&lt;hr size=&quot;1&quot;&gt;&lt;p style=&quot;margin:0px;margin-left:4px;&quot;&gt;- clientSocket: socket&lt;br&gt;- out: PrintWriter&lt;br&gt;- in: BufferedReader&lt;br&gt;- parserService: ParserService&lt;br&gt;- clientId: String&lt;/p&gt;&lt;hr size=&quot;1&quot;&gt;&lt;p style=&quot;margin:0px;margin-left:4px;&quot;&gt;+ ClientHandler(Socket): void&lt;br&gt;+ run(): void&lt;br&gt;+ cleanUp(): void&lt;/p&gt;" style="verticalAlign=top;align=left;overflow=fill;fontSize=12;fontFamily=Helvetica;html=1;" vertex="1" parent="1">
                    <mxGeometry x="970" y="160" width="185" height="171" as="geometry"/>
                </mxCell>
            </root>
        </mxGraphModel>
    </diagram>
</mxfile>